<svg xmlns="http://www.w3.org/2000/svg" width="37" height="37" viewBox="0 0 37 37">
  <g id="Component_68_97" data-name="Component 68 – 97" transform="translate(0.5 0.5)">
    <g id="Group_8437" data-name="Group 8437" transform="translate(0 0)">
      <path id="Path_4140" data-name="Path 4140" d="M74.662,32.433v3.852c-.383,0-.74,0-1.1,0s-.743,0-1.113.021a2.032,2.032,0,0,0-2.02,2.006c-.065.8-.034,1.61-.043,2.414,0,.3,0,.6,0,.93h4.121c-.222,1.524-.439,3.01-.661,4.531H70.4V56.856a14.3,14.3,0,0,1-4.669-.007V46.175H62V41.644h3.756c0-.368-.006-.7,0-1.023.026-1.231-.02-2.47.1-3.691A5.021,5.021,0,0,1,69.83,32.3,13.749,13.749,0,0,1,74.662,32.433Z" transform="translate(-50.877 -27.11)" fill="#333"/>
      <circle id="Ellipse_1432" data-name="Ellipse 1432" cx="18" cy="18" r="18" transform="translate(0 0)" fill="none" stroke="#333" stroke-linecap="round" stroke-linejoin="round" stroke-width="1"/>
    </g>
  </g>
</svg>
