<svg xmlns="http://www.w3.org/2000/svg" width="37" height="37" viewBox="0 0 37 37">
  <g id="Component_67_97" data-name="Component 67 – 97" transform="translate(0.5 0.5)">
    <g id="Group_8434" data-name="Group 8434" transform="translate(-0.001)">
      <path id="Path_4147" data-name="Path 4147" d="M48.461,45.283a7.552,7.552,0,0,1,4.359-.814c.174.017.241.086.241.262-.005,1.23,0,2.46,0,3.689,0,.208-.017.218-.221.167a3.4,3.4,0,1,0-.629,6.684,3.42,3.42,0,0,0,3.258-3.167c.008-.156.012-.314.012-.47q0-3.68,0-7.361v-.15h.013v-.489q0-3.227,0-6.456c0-.37-.011-.739-.011-1.11,0-.268.036-.3.31-.3,1.14,0,2.28,0,3.421.008.488,0,.414-.01.442.4a5.741,5.741,0,0,0,4.871,5.167c.221.032.445.055.667.071.143.011.207.071.207.211,0,1.212,0,2.422,0,3.633,0,.2-.042.228-.307.216a10.176,10.176,0,0,1-4.517-1.233,5.831,5.831,0,0,1-.743-.464c-.044-.033-.085-.089-.15-.048a.155.155,0,0,0-.063.15c.01.225.025.45.025.676,0,2.321,0,4.642,0,6.963a7.742,7.742,0,0,1-.891,3.9,7.423,7.423,0,0,1-5.221,3.776,6.828,6.828,0,0,1-3.636-.116A7.736,7.736,0,0,1,45.285,55.4,7.386,7.386,0,0,1,48.461,45.283Z" transform="translate(-36.894 -29.574)" fill="#333"/>
      <circle id="Ellipse_1436" data-name="Ellipse 1436" cx="18" cy="18" r="18" transform="translate(0.001)" fill="none" stroke="#333" stroke-linecap="round" stroke-linejoin="round" stroke-width="1"/>
    </g>
  </g>
</svg>
